<?xml version="1.0" encoding="UTF-8" standalone="no"?>
<!-- Created with Inkscape (http://www.inkscape.org/) -->

<svg
   xmlns:dc="http://purl.org/dc/elements/1.1/"
   xmlns:cc="http://creativecommons.org/ns#"
   xmlns:rdf="http://www.w3.org/1999/02/22-rdf-syntax-ns#"
   xmlns:svg="http://www.w3.org/2000/svg"
   xmlns="http://www.w3.org/2000/svg"
   xmlns:sodipodi="http://sodipodi.sourceforge.net/DTD/sodipodi-0.dtd"
   xmlns:inkscape="http://www.inkscape.org/namespaces/inkscape"
   width="149.22501mm"
   height="41.275002mm"
   viewBox="0 0 528.75002 146.25"
   id="svg3681"
   version="1.1"
   inkscape:version="0.91 r13725"
   sodipodi:docname="logotype-colored.svg">
  <defs
     id="defs3683" />
  <sodipodi:namedview
     id="base"
     pagecolor="#ffffff"
     bordercolor="#666666"
     borderopacity="1.0"
     inkscape:pageopacity="0.0"
     inkscape:pageshadow="2"
     inkscape:zoom="0.35"
     inkscape:cx="-226.3393"
     inkscape:cy="224.55358"
     inkscape:document-units="px"
     inkscape:current-layer="layer1"
     showgrid="false"
     fit-margin-top="0"
     fit-margin-left="0"
     fit-margin-right="0"
     fit-margin-bottom="0" />
  <metadata
     id="metadata3686">
    <rdf:RDF>
      <cc:Work
         rdf:about="">
        <dc:format>image/svg+xml</dc:format>
        <dc:type
           rdf:resource="http://purl.org/dc/dcmitype/StillImage" />
        <dc:title></dc:title>
      </cc:Work>
    </rdf:RDF>
  </metadata>
  <g
     inkscape:label="Calque 1"
     inkscape:groupmode="layer"
     id="layer1"
     transform="translate(-601.3393,-610.66578)">
    <g
       id="g20"
       transform="matrix(1.25,0,0,-1.25,1115.0893,756.91578)">
      <path
         d="m 0,0 -399,0 c -6.6,0 -12,5.4 -12,12 l 0,93 c 0,6.6 5.4,12 12,12 l 399,0 c 6.6,0 12,-5.4 12,-12 L 12,12 C 12,5.4 6.6,0 0,0"
         style="fill:#51c185;fill-opacity:1;fill-rule:nonzero;stroke:none"
         id="path22"
         inkscape:connector-curvature="0" />
    </g>
    <g
       id="g24"
       transform="matrix(1.25,0,0,-1.25,1017.5893,723.16578)">
      <path
         d="m 0,0 c 0,-4.971 -4.029,-9 -9,-9 -4.971,0 -9,4.029 -9,9 0,4.971 4.029,9 9,9 4.971,0 9,-4.029 9,-9"
         style="fill:#ffffff;fill-opacity:1;fill-rule:nonzero;stroke:none"
         id="path26"
         inkscape:connector-curvature="0" />
    </g>
    <g
       id="g28"
       transform="matrix(1.25,0,0,-1.25,1062.5893,700.66578)">
      <path
         d="m 0,0 c 0,-9.941 -8.059,-18 -18,-18 -9.941,0 -18,8.059 -18,18 0,9.941 8.059,18 18,18 C -8.059,18 0,9.941 0,0"
         style="fill:#ffffff;fill-opacity:1;fill-rule:nonzero;stroke:none"
         id="path30"
         inkscape:connector-curvature="0" />
    </g>
    <g
       id="g32"
       transform="matrix(1.25,0,0,-1.25,1107.5893,661.29078)">
      <path
         d="M 0,0 C 0,-12.426 -10.074,-22.5 -22.5,-22.5 -34.926,-22.5 -45,-12.426 -45,0 -45,12.426 -34.926,22.5 -22.5,22.5 -10.074,22.5 0,12.426 0,0"
         style="fill:#ffffff;fill-opacity:1;fill-rule:nonzero;stroke:none"
         id="path34"
         inkscape:connector-curvature="0" />
    </g>
    <g
       id="g36"
       transform="matrix(1.25,0,0,-1.25,655.37367,656.12541)">
      <path
         d="m 0,0 0,-41.101 14.083,0 0,-6.793 -21.311,0 L -7.228,0 0,0 Z"
         style="fill:#ffffff;fill-opacity:1;fill-rule:nonzero;stroke:none"
         id="path38"
         inkscape:connector-curvature="0" />
    </g>
    <path
       d="m 688.60267,715.99203 -8.72375,0 0,-37.765 8.72375,0 0,37.765 z m -10.0425,-53.46875 c 0,-1.525 0.555,-2.84375 1.6675,-3.955 1.11125,-1.11125 2.4425,-1.6675 3.99375,-1.6675 1.57625,0 2.92125,0.55625 4.0325,1.6675 1.11125,1.085 1.6675,2.4175 1.6675,3.99375 0,1.57625 -0.55625,2.92125 -1.6675,4.0325 -1.08625,1.11125 -2.4175,1.6675 -3.99375,1.6675 -1.5775,0 -2.92125,-0.55625 -4.0325,-1.6675 -1.1125,-1.11125 -1.6675,-2.46875 -1.6675,-4.07125"
       style="fill:#ffffff;fill-opacity:1;fill-rule:nonzero;stroke:none"
       id="path40"
       inkscape:connector-curvature="0" />
    <g
       id="g42"
       transform="matrix(1.25,0,0,-1.25,729.12242,697.38153)">
      <path
         d="m 0,0 c 0,2.895 -0.786,5.253 -2.357,7.073 -1.593,1.861 -3.588,2.791 -5.987,2.791 -2.565,0 -4.653,-0.899 -6.266,-2.698 -1.593,-1.779 -2.389,-4.095 -2.389,-6.948 0,-2.937 0.786,-5.284 2.358,-7.042 1.571,-1.799 3.64,-2.698 6.204,-2.698 2.419,0 4.425,0.899 6.018,2.698 C -0.806,-5.004 0,-2.729 0,0 m -16.595,37.503 0,-25.684 c 2.791,2.895 5.955,4.343 9.491,4.343 4.074,0 7.466,-1.52 10.175,-4.56 2.709,-3.02 4.064,-6.784 4.064,-11.291 0,-4.653 -1.365,-8.499 -4.095,-11.54 -2.709,-3.019 -6.132,-4.529 -10.268,-4.529 -3.495,0 -6.617,1.345 -9.367,4.033 l 0,-3.164 -6.98,0 0,52.392 6.98,0 z"
         style="fill:#ffffff;fill-opacity:1;fill-rule:nonzero;stroke:none"
         id="path44"
         inkscape:connector-curvature="0" />
    </g>
    <g
       id="g46"
       transform="matrix(1.25,0,0,-1.25,747.2688,678.22678)">
      <path
         d="m 0,0 6.979,0 0,-2.699 c 1.282,1.345 2.42,2.265 3.413,2.761 1.012,0.517 2.212,0.776 3.598,0.776 1.84,0 3.763,-0.6 5.769,-1.799 l -3.195,-6.391 c -1.323,0.952 -2.616,1.427 -3.877,1.427 -3.805,0 -5.708,-2.874 -5.708,-8.622 l 0,-15.665 -6.979,0 L 0,0 Z"
         style="fill:#ffffff;fill-opacity:1;fill-rule:nonzero;stroke:none"
         id="path48"
         inkscape:connector-curvature="0" />
    </g>
    <g
       id="g50"
       transform="matrix(1.25,0,0,-1.25,801.86292,692.03053)">
      <path
         d="M 0,0 C -0.972,3.723 -3.319,5.583 -7.042,5.583 -7.89,5.583 -8.685,5.454 -9.43,5.196 -10.174,4.937 -10.852,4.565 -11.461,4.079 -12.072,3.593 -12.594,3.009 -13.028,2.327 -13.462,1.644 -13.793,0.869 -14.021,0 L 0,0 Z m 7.166,-5.708 -21.652,0 c 0.186,-2.481 0.993,-4.456 2.42,-5.924 1.426,-1.448 3.256,-2.171 5.49,-2.171 1.737,0 3.174,0.413 4.312,1.24 1.117,0.827 2.388,2.358 3.815,4.592 l 5.894,-3.288 c -0.91,-1.552 -1.872,-2.881 -2.885,-3.987 -1.014,-1.106 -2.099,-2.016 -3.257,-2.729 -1.158,-0.714 -2.409,-1.235 -3.753,-1.567 -1.345,-0.331 -2.803,-0.497 -4.374,-0.497 -4.509,0 -8.127,1.448 -10.857,4.343 -2.73,2.916 -4.094,6.783 -4.094,11.602 0,4.777 1.323,8.643 3.97,11.601 2.668,2.916 6.204,4.374 10.609,4.374 4.446,0 7.961,-1.417 10.546,-4.25 C 5.914,4.818 7.197,0.92 7.197,-4.063 L 7.166,-5.708 Z"
         style="fill:#ffffff;fill-opacity:1;fill-rule:nonzero;stroke:none"
         id="path52"
         inkscape:connector-curvature="0" />
    </g>
    <g
       id="g54"
       transform="matrix(1.25,0,0,-1.25,866.26729,659.32365)">
      <path
         d="m 0,0 0,-8.546 c -4.177,3.494 -8.5,5.242 -12.966,5.242 -4.922,0 -9.069,-1.768 -12.439,-5.304 -3.392,-3.516 -5.087,-7.817 -5.087,-12.904 0,-5.026 1.695,-9.265 5.087,-12.718 3.391,-3.454 7.548,-5.18 12.47,-5.18 2.543,0 4.704,0.413 6.483,1.24 0.993,0.414 2.021,0.972 3.086,1.675 1.065,0.703 2.187,1.552 3.366,2.544 l 0,-8.732 c -4.136,-2.347 -8.479,-3.521 -13.028,-3.521 -6.845,0 -12.687,2.389 -17.526,7.166 -4.819,4.818 -7.228,10.629 -7.228,17.433 0,6.1 2.016,11.539 6.049,16.316 4.963,5.852 11.384,8.778 19.263,8.778 C -8.169,3.489 -4.012,2.326 0,0"
         style="fill:#ffffff;fill-opacity:1;fill-rule:nonzero;stroke:none"
         id="path56"
         inkscape:connector-curvature="0" />
    </g>
    <g
       id="g58"
       transform="matrix(1.25,0,0,-1.25,883.1343,696.99328)">
      <path
         d="m 0,0 c 0,-2.896 0.775,-5.253 2.327,-7.072 1.592,-1.841 3.598,-2.761 6.017,-2.761 2.585,0 4.674,0.889 6.266,2.668 1.593,1.84 2.389,4.177 2.389,7.01 0,2.833 -0.796,5.169 -2.389,7.01 C 13.018,8.654 10.95,9.554 8.406,9.554 6.007,9.554 4.001,8.644 2.389,6.824 0.796,4.983 0,2.709 0,0 m 16.564,15.013 7.011,0 0,-30.212 -7.011,0 0,3.164 c -2.874,-2.689 -5.966,-4.033 -9.274,-4.033 -4.178,0 -7.631,1.509 -10.361,4.529 -2.709,3.081 -4.063,6.928 -4.063,11.539 0,4.529 1.354,8.302 4.063,11.322 2.709,3.019 6.1,4.529 10.175,4.529 3.515,0 6.669,-1.448 9.46,-4.343 l 0,3.505 z"
         style="fill:#ffffff;fill-opacity:1;fill-rule:nonzero;stroke:none"
         id="path60"
         inkscape:connector-curvature="0" />
    </g>
    <g
       id="g62"
       transform="matrix(1.25,0,0,-1.25,945.56104,684.66303)">
      <path
         d="m 0,0 -5.77,-3.071 c -0.91,1.84 -2.037,2.76 -3.381,2.76 -0.641,0 -1.189,-0.211 -1.644,-0.635 -0.455,-0.424 -0.683,-0.965 -0.683,-1.626 0,-1.157 1.345,-2.303 4.033,-3.439 3.702,-1.591 6.194,-3.056 7.476,-4.399 1.282,-1.343 1.923,-3.151 1.923,-5.422 0,-2.912 -1.076,-5.35 -3.226,-7.312 -2.089,-1.859 -4.612,-2.789 -7.569,-2.789 -5.067,0 -8.654,2.472 -10.763,7.414 l 5.956,2.761 c 0.826,-1.448 1.457,-2.368 1.892,-2.761 0.847,-0.786 1.86,-1.178 3.039,-1.178 2.358,0 3.537,1.075 3.537,3.225 0,1.242 -0.91,2.4 -2.73,3.475 -0.703,0.351 -1.406,0.692 -2.11,1.023 -0.703,0.331 -1.416,0.672 -2.14,1.024 -2.027,0.993 -3.454,1.985 -4.28,2.978 -1.055,1.261 -1.582,2.885 -1.582,4.87 0,2.626 0.899,4.797 2.698,6.514 1.841,1.716 4.074,2.575 6.7,2.575 C -4.757,5.987 -1.882,3.991 0,0"
         style="fill:#ffffff;fill-opacity:1;fill-rule:nonzero;stroke:none"
         id="path64"
         inkscape:connector-curvature="0" />
    </g>
    <g
       id="g66"
       transform="matrix(1.25,0,0,-1.25,964.83167,686.36953)">
      <path
         d="m 0,0 0,-23.698 -6.979,0 0,23.698 -2.978,0 0,6.514 2.978,0 0,11.074 6.979,0 0,-11.074 5.429,0 L 5.429,0 0,0 Z"
         style="fill:#ffffff;fill-opacity:1;fill-rule:nonzero;stroke:none"
         id="path68"
         inkscape:connector-curvature="0" />
    </g>
  </g>
</svg>
